<?xml version="1.0" standalone="no"?>
<!DOCTYPE svg PUBLIC "-//W3C//DTD SVG 20010904//EN"
 "http://www.w3.org/TR/2001/REC-SVG-20010904/DTD/svg10.dtd">
<svg version="1.0" xmlns="http://www.w3.org/2000/svg"
     width="580.000000pt" height="540.000000pt" viewBox="0 0 580.000000 540.000000"
     preserveAspectRatio="xMidYMid meet">
    <metadata>
        Image by Paul Sherman
        Published by wpclipart.com
        License is Public Domain
        Created by potrace 1.12, written by Peter Selinger 2001-2015
    </metadata>
    <g transform="translate(0.000000,540.000000) scale(0.100000,-0.100000)"
       fill="#262626" stroke="none">
        <path d="M3643 5198 c-5 -7 -23 -59 -38 -116 l-29 -103 -91 -87 c-160 -154
                 -381 -284 -561 -334 -107 -29 -339 -31 -464 -4 -198 42 -427 133 -607 241 -85
                 50 -69 29 -264 354 -19 31 -22 32 -36 18 -14 -14 -7 -30 77 -173 l93 -157 -6
                 -146 c-6 -159 -22 -248 -69 -386 -59 -175 -167 -356 -277 -466 -147 -147 -424
                 -289 -671 -343 l-75 -16 -225 61 c-237 65 -270 71 -277 52 -5 -14 77 -40 322
                 -103 l160 -41 58 -70 c86 -101 143 -190 203 -314 64 -133 96 -227 123 -362 34
                 -168 23 -322 -39 -543 -32 -113 -84 -258 -97 -271 -4 -4 -93 -47 -198 -97
                 -176 -83 -220 -111 -202 -128 3 -4 102 39 219 95 l213 101 85 -10 c174 -22
                 318 -65 485 -145 290 -139 462 -312 609 -614 75 -154 135 -329 169 -494 l24
                 -118 -38 -131 c-42 -140 -45 -163 -28 -174 21 -13 36 22 77 171 l41 150 88 83
                 c121 114 236 193 388 267 223 109 357 138 635 138 248 0 444 -33 655 -111 l80
                 -29 102 -169 c90 -151 133 -203 133 -162 0 8 -43 85 -96 172 l-97 159 6 96
                 c17 262 130 628 245 797 127 187 427 364 805 475 l78 23 104 -27 c110 -29 156
                 -34 139 -17 -6 6 -54 22 -108 35 -121 31 -150 43 -225 94 -239 162 -409 443
                 -436 718 -14 142 43 432 127 640 l43 108 113 54 c102 49 127 70 104 85 -5 3
                 -62 -20 -127 -51 l-118 -56 -121 33 c-241 65 -495 168 -612 247 -83 57 -243
                 211 -308 297 -120 159 -221 361 -267 532 l-21 79 26 95 c24 87 23 129 -1 98z
                 m-167 -549 c-40 -134 -79 -268 -87 -298 -12 -47 -23 -62 -100 -135 -99 -92
                 -212 -165 -320 -204 -64 -23 -90 -27 -189 -27 -170 0 -298 36 -502 142 l-106
                 55 -173 282 c-95 154 -173 283 -175 286 -1 3 53 -22 120 -55 305 -151 657
                 -229 884 -196 206 30 461 161 642 329 41 38 76 69 77 68 1 -1 -31 -112 -71
                 -247z m144 174 c89 -258 304 -556 513 -714 137 -103 430 -229 684 -294 40 -10
                 71 -21 69 -23 -3 -2 -109 -53 -238 -114 l-233 -110 -80 5 c-96 7 -294 48 -393
                 81 -125 43 -190 84 -293 186 -86 85 -102 106 -147 200 -28 58 -60 133 -72 168
                 l-20 62 87 310 c49 170 91 310 94 310 3 0 16 -30 29 -67z m-1490 -743 c0 -101
                 -20 -256 -44 -331 -24 -77 -56 -130 -115 -192 -126 -133 -298 -225 -490 -261
                 l-73 -14 -331 84 c-183 47 -339 87 -347 91 -8 3 14 12 50 19 300 64 619 273
                 774 507 107 163 196 463 196 666 0 144 -5 149 196 -177 l184 -297 0 -95z
                 m1152 -86 c-33 -110 -67 -228 -77 -264 -14 -55 -25 -72 -68 -114 -80 -75 -142
                 -99 -262 -104 -110 -4 -161 8 -287 68 l-63 30 -145 236 c-80 130 -146 240
                 -148 244 -2 5 45 -12 103 -37 59 -24 159 -59 223 -76 99 -25 136 -30 237 -31
                 112 0 125 2 200 32 88 35 200 104 285 175 30 25 56 44 58 42 2 -1 -24 -92 -56
                 -201z m321 -160 c119 -124 165 -155 305 -204 105 -37 332 -90 386 -90 14 0 26
                 -4 26 -9 0 -4 -82 -46 -182 -91 -101 -46 -226 -104 -279 -131 l-96 -47 -107
                 18 c-132 22 -194 52 -268 127 -56 57 -158 212 -158 241 0 12 110 401 141 499
                 10 31 10 31 72 -90 54 -107 73 -133 160 -223z m-1283 21 c84 -137 154 -253
                 156 -257 9 -16 -39 -209 -66 -265 -41 -84 -117 -152 -217 -193 -42 -18 -86
                 -33 -98 -33 -28 -2 -595 145 -595 153 0 4 21 13 47 20 70 17 208 76 286 122
                 94 55 206 163 246 237 46 87 71 196 78 344 3 70 7 126 8 125 1 -2 71 -115 155
                 -253z m2597 -107 c-107 -250 -157 -445 -157 -614 0 -134 42 -316 98 -429 73
                 -147 193 -291 312 -372 36 -25 56 -42 45 -39 -11 3 -141 37 -290 75 -148 38
                 -299 77 -335 87 -196 53 -386 277 -426 504 -16 95 -12 139 21 222 27 66 105
                 198 163 276 39 52 47 57 269 161 125 59 242 115 258 124 36 20 49 21 42 5z
                 m-1801 -325 l-51 -177 -43 -30 c-34 -24 -55 -31 -105 -34 -56 -3 -67 0 -117
                 30 -49 30 -63 47 -146 183 -51 83 -93 153 -93 156 -1 4 28 -4 62 -17 84 -30
                 203 -54 270 -54 77 0 144 23 212 75 33 25 60 45 61 45 1 0 -21 -80 -50 -177z
                 m135 106 c42 -79 149 -194 209 -224 27 -13 89 -33 139 -43 49 -10 93 -20 95
                 -23 3 -3 -73 -41 -168 -85 l-173 -81 -47 12 c-70 18 -124 61 -161 128 l-32 58
                 24 77 c13 42 35 114 49 160 14 45 27 82 29 82 2 0 18 -27 36 -61z m-613 -194
                 c67 -112 72 -125 72 -178 0 -48 -4 -61 -30 -91 -17 -18 -55 -44 -84 -56 l-55
                 -22 -197 48 -197 47 60 22 c115 44 182 92 229 167 24 37 57 145 69 226 l7 43
                 27 -43 c15 -24 60 -97 99 -163z m1682 141 c0 -3 -25 -39 -55 -82 -70 -97 -142
                 -243 -155 -312 -8 -42 -6 -70 6 -123 34 -151 89 -250 210 -378 l72 -77 -251
                 66 c-139 37 -265 70 -280 74 -15 4 -61 39 -101 79 -65 64 -76 80 -95 141 -35
                 115 -26 171 48 288 l41 64 197 97 c315 152 363 174 363 163z m-3296 -131 c307
                 -79 332 -88 374 -122 103 -84 236 -295 261 -411 32 -155 4 -309 -97 -525 l-36
                 -79 -91 -45 c-75 -39 -482 -232 -523 -250 -7 -3 1 24 17 61 65 145 117 353
                 128 512 18 271 -130 660 -336 886 -52 57 -60 71 -38 63 6 -2 160 -43 341 -90z
                 m751 -196 c227 -58 327 -88 343 -103 37 -33 91 -121 113 -184 28 -78 22 -182
                 -16 -275 l-28 -68 -121 -61 c-112 -56 -474 -228 -481 -228 -1 0 13 29 32 65
                 84 159 123 327 103 443 -26 151 -118 320 -238 440 -35 35 -55 61 -45 59 10 -3
                 162 -43 338 -88z m1416 -46 c19 -18 52 -38 73 -46 l38 -13 -137 -64 c-76 -36
                 -141 -66 -145 -68 -8 -3 36 171 66 260 l16 49 28 -43 c15 -24 43 -58 61 -75z
                 m-281 47 c14 0 51 11 83 24 33 14 57 19 54 13 -2 -7 -23 -75 -47 -152 -23 -77
                 -43 -141 -45 -143 -1 -2 -38 57 -80 130 -43 73 -84 143 -92 155 -14 21 -14 21
                 44 -3 32 -13 69 -24 83 -24z m774 13 c-80 -122 -86 -135 -82 -203 5 -88 41
                 -162 113 -235 32 -31 49 -55 39 -52 -11 4 -84 22 -164 42 -181 44 -185 46
                 -208 92 -32 63 -36 122 -12 185 l20 55 153 72 c83 39 154 71 156 71 2 0 -5
                 -12 -15 -27z m-860 -132 c42 -68 74 -126 72 -129 -5 -4 -273 56 -290 65 -4 3
                 13 17 40 32 59 32 84 65 91 120 3 23 7 40 8 39 2 -2 37 -59 79 -127z m-296
                 -81 c32 -14 82 -97 82 -137 0 -18 -7 -50 -15 -71 -14 -35 -26 -43 -181 -120
                 -92 -46 -164 -77 -162 -70 35 93 40 125 36 212 -4 101 -20 145 -86 231 l-38
                 50 170 -42 c94 -23 181 -47 194 -53z m798 19 c-14 -46 -7 -131 15 -171 13 -24
                 14 -24 -160 22 -82 22 -154 40 -158 41 -4 0 64 35 152 78 88 43 161 77 162 76
                 1 0 -4 -21 -11 -46z m-606 -63 c52 -13 115 -30 140 -36 l45 -12 -134 -64 c-74
                 -35 -135 -64 -136 -64 -1 0 2 17 8 38 9 35 7 46 -21 106 -26 56 -29 66 -14 62
                 9 -2 60 -16 112 -30z m174 -245 c-26 -89 -50 -161 -53 -161 -4 0 -14 15 -24
                 33 -25 46 -101 94 -169 108 -32 7 -58 15 -58 18 0 7 343 169 348 165 2 -1 -18
                 -74 -44 -163z m289 124 c95 -25 180 -48 191 -52 14 -4 9 -9 -25 -25 -24 -10
                 -52 -27 -62 -36 -27 -24 -58 -89 -71 -146 l-11 -50 -103 171 c-56 94 -102 174
                 -102 177 0 9 -1 9 183 -39z m-105 -176 c45 -76 82 -139 82 -142 0 -3 -16 -1
                 -36 5 -50 13 -121 2 -193 -32 -34 -16 -61 -26 -61 -22 0 4 23 86 50 182 28 96
                 50 177 50 180 0 8 22 -28 108 -171z m712 11 c-1 -3 -35 -21 -78 -40 -131 -60
                 -218 -171 -273 -350 -13 -41 -26 -78 -29 -82 -3 -4 -43 54 -88 130 -80 135
                 -82 139 -82 202 1 114 52 187 154 219 l57 17 169 -45 c94 -25 170 -48 170 -51z
                 m-1142 -12 c84 -31 134 -75 154 -135 l17 -51 -46 -163 -47 -162 -18 82 c-28
                 133 -84 208 -194 258 -63 29 -171 53 -239 53 l-49 0 154 75 c169 82 165 81
                 268 43z m1532 -83 c162 -42 300 -77 305 -79 12 -4 1 -8 -90 -30 -92 -23 -234
                 -91 -312 -150 -70 -53 -150 -148 -188 -225 -64 -127 -110 -329 -103 -459 1
                 -39 0 -68 -4 -64 -7 7 -321 519 -337 550 -13 24 20 175 52 246 48 103 136 198
                 227 246 44 24 125 49 140 45 8 -3 148 -38 310 -80z m-1824 -85 c101 -26 190
                 -68 233 -111 62 -61 101 -177 101 -297 0 -40 -25 -139 -92 -368 l-93 -314 -7
                 123 c-16 299 -133 502 -350 606 -145 70 -323 111 -481 111 l-72 0 275 134
                 c266 130 277 135 341 135 36 1 101 -8 145 -19z m794 0 c31 -9 44 -25 110 -132
                 41 -67 81 -132 87 -144 l13 -22 -67 23 c-175 61 -346 34 -478 -76 -27 -22 -51
                 -37 -52 -32 -1 4 17 76 41 158 42 147 44 151 83 177 71 49 187 69 263 48z
                 m1752 -97 c192 -49 348 -90 348 -93 -1 -3 -60 -24 -133 -48 -216 -70 -442
                 -191 -589 -315 -139 -117 -243 -312 -312 -582 -30 -119 -56 -273 -56 -332 0
                 -24 -3 -43 -7 -43 -5 0 -41 55 -82 123 -41 67 -110 180 -154 251 l-81 129 1
                 161 c0 167 11 243 53 362 74 211 259 358 560 445 52 15 97 28 100 28 3 1 161
                 -38 352 -86z m-2991 -216 c244 -63 398 -167 474 -318 56 -110 85 -239 91 -399
                 l6 -135 -80 -285 c-44 -157 -88 -313 -98 -347 -9 -35 -20 -63 -23 -63 -3 0
                 -20 57 -37 128 -52 212 -162 472 -264 623 -166 243 -531 461 -892 533 -66 13
                 -121 26 -123 28 -3 2 123 63 278 136 l282 131 145 -3 c112 -4 167 -10 241 -29z
                 m1381 -3 c46 -14 90 -33 99 -42 9 -10 85 -132 169 -272 85 -140 160 -265 168
                 -278 l15 -23 -59 26 c-88 40 -101 44 -199 72 -111 30 -322 42 -431 24 -137
                 -23 -312 -119 -436 -239 -38 -36 -68 -61 -68 -56 1 5 43 153 94 329 l92 320
                 60 48 c109 89 180 115 321 116 73 1 109 -4 175 -25z m23 -535 c131 -16 266
                 -54 375 -105 l95 -45 163 -265 c90 -146 162 -267 160 -269 -1 -1 -48 12 -103
                 30 -211 71 -436 101 -685 92 -234 -9 -345 -36 -545 -133 -137 -66 -237 -135
                 -354 -242 -83 -76 -89 -80 -80 -50 5 18 34 121 65 228 30 107 70 245 90 307
                 34 110 35 113 108 186 162 163 388 275 561 276 33 1 101 -4 150 -10z"/>
    </g>
</svg>
